<svg width="74" height="47" viewBox="0 0 74 47" fill="none" xmlns="http://www.w3.org/2000/svg">
<path d="M50.639 46.9999C45.2351 46.9992 39.9987 45.1135 35.8218 41.6641C31.6449 38.2146 28.786 33.4149 27.7323 28.0825C26.6785 22.7502 27.495 17.2153 30.0427 12.4207C32.5904 7.62615 36.7117 3.86864 41.7043 1.78837C46.6969 -0.291904 52.252 -0.566228 57.4232 1.01214C62.5943 2.5905 67.0615 5.9239 70.0636 10.4444C73.0658 14.9649 74.4171 20.3928 73.8875 25.8033C73.3578 31.2138 70.9799 36.2722 67.1589 40.1166C64.994 42.3053 62.4194 44.0406 59.5839 45.2221C56.7483 46.4036 53.7081 47.0078 50.639 46.9999ZM50.639 0.963239C46.2093 0.963239 41.879 2.28478 38.1959 4.76075C34.5127 7.23672 31.642 10.7559 29.9468 14.8733C28.2516 18.9907 27.8081 23.5214 28.6723 27.8924C29.5365 32.2634 31.6696 36.2784 34.8019 39.4297C37.9342 42.581 41.925 44.7271 46.2696 45.5965C50.6142 46.4659 55.1174 46.0197 59.21 44.3142C63.3025 42.6088 66.8004 39.7206 69.2615 36.0151C71.7225 32.3095 73.0361 27.953 73.0361 23.4964C73.0266 17.5245 70.6634 11.8001 66.4648 7.57869C62.2661 3.35727 56.5748 0.98339 50.639 0.977667V0.963239ZM50.639 44.1499C46.5791 44.1485 42.6108 42.936 39.2357 40.6656C35.8607 38.3953 33.2306 35.1692 31.6779 31.3951C30.1253 27.6211 29.7197 23.4686 30.5127 19.4626C31.3056 15.4567 33.2613 11.7773 36.1326 8.88954C39.0039 6.00181 42.6618 4.03546 46.6438 3.23913C50.6258 2.44279 54.7531 2.85222 58.5039 4.41565C62.2546 5.97908 65.4604 8.6263 67.7158 12.0226C69.9712 15.4189 71.175 19.4118 71.175 23.4964C71.1684 28.9732 69.0024 34.2237 65.1524 38.0958C61.3024 41.9678 56.0828 44.1451 50.639 44.1499ZM50.639 3.86736C46.7803 3.86807 43.0085 5.0199 39.8005 7.1772C36.5925 9.33449 34.0924 12.4004 32.6162 15.9872C31.1401 19.574 30.7542 23.5206 31.5075 27.328C32.2607 31.1354 34.1191 34.6326 36.8479 37.3774C39.5766 40.1222 43.053 41.9914 46.8376 42.7484C50.6222 43.5055 54.5449 43.1166 58.1097 41.6308C61.6746 40.1451 64.7215 37.6292 66.8652 34.4013C69.0089 31.1734 70.1531 27.3785 70.1531 23.4964C70.1483 18.2909 68.0908 13.3001 64.4323 9.61929C60.7737 5.93849 55.813 3.86853 50.639 3.86375V3.86736ZM46.1101 30.5601H46.0061H45.7121L42.9295 30.7909L45.6404 31.4656C45.7003 31.4816 45.7591 31.5021 45.8161 31.5269L45.9129 31.5846H45.981H46.085H46.1209C46.188 31.5846 46.2544 31.5708 46.316 31.5441C46.3776 31.5175 46.4333 31.4785 46.4794 31.4295L46.5189 31.3862L47.6699 30.6286L46.293 30.5456L46.1101 30.5601ZM64.699 22.7857C64.3673 22.2789 64.1461 21.7072 64.05 21.1081C63.9491 20.5927 63.7241 20.11 63.3946 19.7024C63.0651 19.2948 62.6413 18.9748 62.1602 18.7704C61.2672 18.3961 60.3092 18.2036 59.3418 18.204C59.1266 18.204 58.9043 18.204 58.6856 18.2293C58.4668 18.2545 58.2123 18.2545 57.9684 18.2545C57.7246 18.2545 57.4198 18.2365 57.1473 18.2184C57.1701 17.2785 57.1137 16.3384 56.9787 15.4081C56.8763 14.7223 56.7253 14.0448 56.5269 13.3806C56.4109 12.9913 56.21 12.6328 55.9389 12.3314C55.6679 12.03 55.3334 11.7932 54.9599 11.6382C54.4108 11.384 53.9218 11.0151 53.5256 10.5559C53.2254 10.2332 52.8629 9.97554 52.4602 9.79874C52.0576 9.62195 51.6233 9.52971 51.184 9.5277C51.022 9.52714 50.8602 9.53921 50.7 9.56378C49.5321 9.75914 48.4264 10.2288 47.4727 10.9347C46.9676 11.2974 46.4312 11.6137 45.8699 11.8799C44.9985 12.2983 43.7184 12.8828 42.5888 13.3229C41.4395 13.7603 40.4018 14.4505 39.5516 15.3432C37.3248 17.7025 34.1119 22.7821 37.6153 30.3147C37.8247 30.7651 38.1485 31.152 38.5539 31.4364C38.9593 31.7208 39.4321 31.8926 39.9245 31.9346C40.0105 32.2981 40.1784 32.6368 40.4153 32.9246C40.6522 33.2124 40.9517 33.4414 41.2907 33.5941C41.3631 33.8696 41.4926 34.1266 41.6708 34.348L41.6995 34.3769C43.899 36.3926 46.7673 37.5094 49.7425 37.5083C53.0415 37.5083 56.3799 36.1482 59.6538 33.4642C61.7441 31.7564 63.3917 29.564 64.4552 27.0751C64.7256 26.4369 64.9497 25.7798 65.1257 25.109C65.234 24.7127 65.2518 24.2969 65.1779 23.8927C65.1041 23.4886 64.9403 23.1064 64.699 22.7748V22.7857ZM40.1433 31.011C39.7859 31.0066 39.4369 30.901 39.1364 30.7065C38.8358 30.5119 38.5957 30.2361 38.4436 29.9107C35.1697 22.8722 38.1496 18.1499 40.2114 15.9637C40.9668 15.1677 41.8893 14.5514 42.9115 14.1599C44.0734 13.7197 45.375 13.1209 46.2643 12.6988C46.8757 12.4063 47.4601 12.0599 48.0106 11.6634C48.8502 11.0408 49.8248 10.6278 50.8542 10.4585C50.9669 10.4412 51.0808 10.4328 51.1948 10.4332C51.5085 10.4333 51.8188 10.4973 52.1072 10.6213C52.3957 10.7453 52.6561 10.9267 52.873 11.1547C53.3546 11.7136 53.9502 12.1615 54.6193 12.4679C54.8673 12.5699 55.0895 12.7266 55.2695 12.9263C55.4494 13.1261 55.5826 13.364 55.6591 13.6223C55.8433 14.2456 55.9847 14.8808 56.0823 15.5235C56.2046 16.3764 56.2574 17.2379 56.24 18.0994C55.3543 17.9948 54.2607 17.8468 53.2853 17.6592C52.9244 17.5881 52.5589 17.5423 52.1917 17.5222C52.2767 17.4057 52.3372 17.273 52.3692 17.1321C52.4013 16.9913 52.4043 16.8453 52.3781 16.7032C52.3708 16.6327 52.3782 16.5615 52.3996 16.494C52.4149 16.4416 52.4458 16.3952 52.4881 16.361C52.5304 16.3268 52.5821 16.3065 52.6363 16.3028C52.7237 16.2999 52.8093 16.2774 52.8869 16.2368C52.9645 16.1962 53.032 16.1386 53.0845 16.0683C53.2593 15.7224 53.2965 15.3225 53.1885 14.9499C53.1789 14.8989 53.1803 14.8464 53.1926 14.7959C53.205 14.7455 53.2281 14.6984 53.2602 14.6577C53.8124 14.0011 54.0204 13.442 53.8842 12.9946C53.8195 12.8304 53.7183 12.6833 53.5884 12.5645C53.4585 12.4457 53.3033 12.3584 53.1347 12.3092H53.1096C52.9916 12.2847 52.8715 12.2714 52.751 12.2695C52.059 12.2695 51.5641 12.7998 51.392 13.7125C51.3811 13.7708 51.3536 13.8247 51.3129 13.8676C51.2722 13.9105 51.2199 13.9406 51.1625 13.9542L50.847 14.03L50.3772 14.3475V15.0149L50.3306 15.1664C50.3094 15.2311 50.2753 15.2907 50.2302 15.3416C50.1852 15.3925 50.1303 15.4335 50.0689 15.4622L49.8071 15.5813L49.7067 15.6606C49.6312 15.7215 49.574 15.8024 49.5417 15.8942C49.5094 15.986 49.5032 16.085 49.5238 16.1801C49.5459 16.2843 49.5266 16.3931 49.47 16.4832L49.427 16.5553C49.3835 16.6231 49.3275 16.6819 49.2621 16.7285L49.1939 16.7718C49.0537 16.8673 48.9337 16.9898 48.8408 17.1322C48.7479 17.2746 48.6839 17.4341 48.6525 17.6015C48.6202 17.7747 48.5879 17.9442 48.552 18.1174C45.4001 19.2466 41.0218 22.1363 40.1863 29.5066C40.1269 30.0069 40.2025 30.5141 40.4051 30.9749H40.2401L40.1433 31.011ZM51.3024 14.8886L51.3741 14.8706C51.6045 14.8171 51.8145 14.6971 51.9781 14.5254C52.1418 14.3536 52.2522 14.1376 52.2956 13.9037C52.3351 13.6945 52.457 13.2075 52.7546 13.2075C52.7988 13.2039 52.8432 13.2039 52.8873 13.2075C52.9308 13.2248 52.9718 13.2479 53.0092 13.276C53.0092 13.3337 52.9555 13.6043 52.561 14.0769C52.4363 14.2242 52.3471 14.3986 52.3005 14.5863C52.2538 14.7741 52.251 14.9701 52.2921 15.1592C52.3133 15.2552 52.3253 15.3531 52.3279 15.4514C52.1376 15.5063 51.964 15.6084 51.823 15.7483C51.6821 15.8883 51.5782 16.0615 51.5211 16.2523C51.4667 16.437 51.4497 16.6308 51.4709 16.8223C51.4746 16.8631 51.4746 16.9041 51.4709 16.9449C51.1456 17.0579 50.8743 17.2897 50.7107 17.5943C50.3477 17.6369 49.9882 17.7056 49.635 17.7999L49.5453 17.8252C49.5436 17.8144 49.5436 17.8035 49.5453 17.7927C49.5537 17.7455 49.5713 17.7005 49.5972 17.6602C49.623 17.62 49.6566 17.5853 49.6959 17.5582L49.7605 17.5149C49.9373 17.3971 50.0866 17.242 50.1979 17.0604L50.241 16.9918C50.3655 16.7899 50.4348 16.5584 50.4418 16.3208C50.6198 16.2402 50.7788 16.1227 50.9086 15.9759C51.0383 15.8292 51.1359 15.6566 51.1948 15.4694L51.2916 15.1664L51.3024 14.8886ZM41.2621 32.4721C41.0438 32.2264 40.8865 31.9322 40.8031 31.6135C40.9564 31.8073 41.1349 31.9796 41.3338 32.1258C41.2908 32.234 41.2656 32.3639 41.2477 32.4613L41.2621 32.4721ZM64.258 24.86C64.0891 25.487 63.8783 26.1016 63.6269 26.6999C62.6178 29.0495 61.0562 31.1171 59.0764 32.7246C55.9675 35.2716 52.8264 36.5631 49.7533 36.5631C47.0271 36.5709 44.396 35.556 42.3737 33.7167C41.9828 33.2225 42.1585 32.4757 42.302 32.068L42.4311 31.7073L42.0904 31.5197C41.7591 31.3392 41.4892 31.063 41.3153 30.7267C41.1415 30.3904 41.0717 30.0094 41.115 29.6329C41.9972 21.9126 46.9922 19.4594 49.8896 18.6874C50.4899 18.5277 51.1081 18.4465 51.7291 18.4457C52.1972 18.4469 52.6641 18.4915 53.124 18.5792C54.3575 18.8173 55.7703 18.9941 56.7385 19.1023C57.153 19.1468 57.5695 19.1697 57.9863 19.1708C58.2445 19.1708 58.5027 19.1708 58.7609 19.142C58.9402 19.142 59.1195 19.1239 59.3024 19.1239C60.1637 19.1159 61.0177 19.2841 61.8124 19.6182C62.1553 19.7642 62.4575 19.9924 62.6925 20.2829C62.9275 20.5735 63.0883 20.9175 63.1607 21.2849C63.2837 22.0134 63.5573 22.7078 63.9639 23.3232C64.1189 23.5414 64.2242 23.7912 64.2726 24.0549C64.3209 24.3186 64.311 24.5898 64.2436 24.8492L64.258 24.86ZM61.8913 21.974H61.8519C61.3457 22.027 60.8807 22.2785 60.5574 22.6738C60.5181 22.7176 60.4671 22.7491 60.4105 22.7644C60.3539 22.7798 60.2941 22.7784 60.2383 22.7604L59.9299 22.6558L59.3633 22.681L59.0047 23.2546L58.8864 23.3593C58.8371 23.4012 58.78 23.4327 58.7184 23.4519C58.6568 23.4711 58.592 23.4776 58.5278 23.4711L58.2445 23.4314L58.1154 23.4495C58.0197 23.4612 57.9291 23.4994 57.8538 23.5599C57.7784 23.6205 57.7213 23.7009 57.6887 23.7922C57.6538 23.8943 57.5804 23.9785 57.4843 24.0267L57.4126 24.0627C57.3405 24.1 57.2606 24.1198 57.1795 24.1205H57.1007C56.7582 24.1365 56.4359 24.2883 56.2042 24.5426C54.9617 25.9445 53.5746 27.2094 52.0662 28.3161L51.6825 28.5975L51.1482 28.933L50.8362 29.1206L49.2585 30.0514L51.1625 29.9756L51.392 29.9107C51.4627 29.8925 51.529 29.8601 51.5869 29.8154C51.6448 29.7708 51.6932 29.7149 51.7291 29.6509L51.9837 29.1964L52.3925 29.1459L53.0451 29.0773C53.1341 29.069 53.2195 29.0381 53.2935 28.9877C53.3674 28.9372 53.4275 28.8688 53.4682 28.7887L53.5041 28.7238C53.5797 28.5821 53.6959 28.4665 53.8376 28.3919L53.9953 28.3089L54.2822 28.2331H54.3754C54.5428 28.233 54.7063 28.1828 54.8452 28.0888L54.9492 28.0203C55.0362 27.9591 55.1157 27.8876 55.1858 27.8074L55.4404 27.5152C55.5421 27.4485 55.6572 27.4054 55.7775 27.389L56.4731 27.3132L56.5377 27.2771L56.6345 27.2447L56.8963 27.14L56.9178 26.8586C56.9207 26.8306 56.9329 26.8043 56.9524 26.7841C56.9719 26.7638 56.9976 26.7507 57.0253 26.7468H57.0504H57.2692L58.1262 26.8586L58.266 26.5484C58.2846 26.5051 58.3159 26.4686 58.3557 26.4438L58.4023 26.4113C58.4763 26.3642 58.5621 26.3391 58.6497 26.3391C58.6926 26.3334 58.736 26.3334 58.7788 26.3391C58.854 26.364 58.9328 26.3762 59.0119 26.3752C59.1978 26.3584 59.375 26.2883 59.5224 26.1732C59.6699 26.0581 59.7814 25.9028 59.8438 25.7259C59.8753 25.6633 59.9178 25.6071 59.9693 25.5599C60.0174 25.5159 60.08 25.4915 60.145 25.4914C60.1873 25.492 60.2289 25.5018 60.2669 25.5202C60.35 25.565 60.4418 25.5909 60.5359 25.596H60.5681C61.0415 25.596 61.3212 25.0079 61.4467 24.6544C61.4654 24.606 61.4944 24.5622 61.5315 24.5261C61.5687 24.49 61.6131 24.4624 61.6618 24.4452C62.4686 24.1782 62.9348 23.8138 63.0531 23.3629V23.3015C63.0727 23.1351 63.057 22.9664 63.0069 22.8066C62.9568 22.6467 62.8736 22.4994 62.7627 22.3744C62.5303 22.1307 62.2124 21.9883 61.877 21.9776L61.8913 21.974ZM61.3857 23.5902C61.2039 23.6489 61.0381 23.7491 60.9012 23.883C60.7644 24.017 60.6602 24.181 60.5968 24.3622C60.5636 24.4544 60.5228 24.5437 60.4749 24.6291C60.3709 24.6004 60.2636 24.5858 60.1558 24.5859C59.8658 24.5857 59.586 24.6937 59.3705 24.8889C59.2284 25.0151 59.1127 25.1684 59.0298 25.3398C59.0123 25.3793 58.9907 25.4168 58.9653 25.4517C58.8663 25.4302 58.7653 25.4193 58.6641 25.4192C58.3962 25.4178 58.134 25.497 57.9111 25.6465L57.8644 25.679C57.7855 25.7326 57.7132 25.7955 57.6493 25.8666L57.3875 25.8305L56.9967 25.8088L56.8927 25.8305C56.7244 25.8579 56.5654 25.9266 56.4298 26.0304C56.2941 26.1342 56.1858 26.27 56.1146 26.4257L55.6914 26.4798H55.6556C56.0906 26.0542 56.5078 25.614 56.907 25.1595C56.9393 25.1234 56.9785 25.0943 57.0223 25.0738C57.066 25.0534 57.1134 25.042 57.1616 25.0404H57.2369C57.449 25.0347 57.6572 24.9817 57.8465 24.8853L57.9182 24.8492C58.1304 24.7446 58.3102 24.5837 58.4382 24.3838C58.6303 24.4065 58.825 24.3891 59.0101 24.3326C59.1952 24.2761 59.3667 24.1818 59.5139 24.0555L59.7542 23.8463L59.8904 23.6082L59.9621 23.6334C60.1863 23.708 60.4272 23.7157 60.6557 23.6555C60.8841 23.5953 61.0903 23.4699 61.2495 23.2943C61.4019 23.0971 61.615 22.9562 61.8555 22.8939C61.9507 22.9017 62.0399 22.944 62.1065 23.0129C62.1427 23.0554 62.1641 23.1086 62.1674 23.1645C61.9448 23.3763 61.67 23.5245 61.3714 23.5938L61.3857 23.5902ZM25.4593 31.1986H0V34.027H25.4593V31.1986ZM25.4593 24.6328H6.63018V27.4611H25.4773L25.4593 24.6328ZM25.4593 18.6658H13.0847V21.4941H25.4486L25.4593 18.6658ZM25.4593 12.9657H18.822V15.7941H25.4773L25.4593 12.9657Z" fill="#00C158"/>
</svg>
