<svg width="30" height="30" viewBox="0 0 30 30" fill="none" xmlns="http://www.w3.org/2000/svg">
<path d="M3.47748 26.25L26.915 3.75" stroke="black" stroke-width="1.5" stroke-linecap="round" stroke-linejoin="round"/>
<path d="M11.2037 23.815C12.4327 24.1962 13.7133 24.3851 15 24.375C20.125 24.46 25.3225 20.8575 28.53 17.3275C29.2432 16.5376 29.2432 15.3361 28.53 14.5462C27.3684 13.2708 26.081 12.1158 24.6875 11.0987" stroke="black" stroke-width="1.5" stroke-linecap="round" stroke-linejoin="round"/>
<path d="M18.0163 7.8525C17.0297 7.60839 16.0163 7.48995 15 7.5C9.96 7.4175 4.75 10.94 1.4725 14.545C0.759248 15.3349 0.759248 16.5364 1.4725 17.3262C2.46528 18.4174 3.55011 19.4211 4.715 20.3262" stroke="black" stroke-width="1.5" stroke-linecap="round" stroke-linejoin="round"/>
<path d="M10.3112 15.9375C10.3112 14.6941 10.8053 13.5016 11.6846 12.6225C12.564 11.7434 13.7566 11.2497 15 11.25" stroke="black" stroke-width="1.5" stroke-linecap="round" stroke-linejoin="round"/>
<path d="M19.6863 15.9362V15.9362C19.6866 17.1795 19.193 18.3719 18.3142 19.2512C17.4354 20.1305 16.2432 20.6247 15 20.625" stroke="black" stroke-width="1.5" stroke-linecap="round" stroke-linejoin="round"/>
</svg>
